<?xml version="1.0" encoding="UTF-8" standalone="no"?>
<!-- Created with Inkscape (http://www.inkscape.org/) -->
<svg
   xmlns:dc="http://purl.org/dc/elements/1.1/"
   xmlns:cc="http://web.resource.org/cc/"
   xmlns:rdf="http://www.w3.org/1999/02/22-rdf-syntax-ns#"
   xmlns:svg="http://www.w3.org/2000/svg"
   xmlns="http://www.w3.org/2000/svg"
   xmlns:sodipodi="http://sodipodi.sourceforge.net/DTD/sodipodi-0.dtd"
   xmlns:inkscape="http://www.inkscape.org/namespaces/inkscape"
   id="svg2211"
   sodipodi:version="0.32"
   inkscape:version="0.45.1"
   width="400"
   height="150"
   version="1.0"
   sodipodi:docbase="/home/ian/documents/My Music"
   sodipodi:docname="Arabic_Text.svg"
   inkscape:output_extension="org.inkscape.output.svg.inkscape">
  <metadata
     id="metadata2216">
    <rdf:RDF>
      <cc:Work
         rdf:about="">
        <dc:format>image/svg+xml</dc:format>
        <dc:type
           rdf:resource="http://purl.org/dc/dcmitype/StillImage" />
      </cc:Work>
    </rdf:RDF>
  </metadata>
  <defs
     id="defs2214" />
  <sodipodi:namedview
     inkscape:window-height="691"
     inkscape:window-width="1016"
     inkscape:pageshadow="2"
     inkscape:pageopacity="0.0"
     guidetolerance="10.0"
     gridtolerance="10.0"
     objecttolerance="10.0"
     borderopacity="1.0"
     bordercolor="#666666"
     pagecolor="#ffffff"
     id="base"
     inkscape:zoom="1.81"
     inkscape:cx="200"
     inkscape:cy="75"
     inkscape:window-x="0"
     inkscape:window-y="25"
     inkscape:current-layer="svg2211" />
  <path
     style="fill:#000000"
     d="M 169.26654,144.48657 C 167.45573,143.34138 167.47995,143.31917 174.23758,139.92829 C 180.65109,136.71008 207.89396,110.53781 211.88963,103.75591 L 214.35917,99.564308 L 209.19627,88.454141 C 203.12807,75.395806 202.30457,71.215946 204.77457,66.010798 C 206.2288,62.946239 217.41834,52.447514 219.23031,52.447514 C 219.51724,52.447514 219.59344,54.441084 219.39965,56.877669 C 219.10456,60.587875 220.03783,63.49036 225.14244,74.737885 C 228.49477,82.124421 231.23758,89.130851 231.23758,90.307731 C 231.23758,92.373881 231.64588,92.447511 243.10272,92.447511 C 253.62761,92.447511 255.26828,92.211211 257.62742,90.355511 L 260.28697,88.263501 L 258.10051,84.605511 C 254.00182,77.748313 252.37534,76.562412 246.09473,75.851843 C 242.8733,75.487379 240.23758,74.975857 240.23758,74.715128 C 240.23758,73.873405 255.67091,56.797309 257.73758,55.352385 C 259.18974,54.3371 264.11339,53.859524 275.71224,53.608912 C 289.68102,53.307093 292.0354,53.015606 294.46224,51.287539 L 297.23758,49.311326 L 297.23758,55.42908 C 297.23758,58.803727 296.59712,62.757625 295.80921,64.247174 C 295.02361,65.732361 290.29861,70.988132 285.30921,75.926665 C 280.31981,80.865201 276.23758,85.652841 276.23758,86.565881 C 276.23758,87.478921 277.02508,89.190601 277.98758,90.369621 C 279.66674,92.426521 280.40555,92.501851 296.23758,92.230411 L 312.73758,91.947511 L 313.00408,65.107766 L 313.27059,38.268018 L 309.68284,29.607766 C 307.70957,24.844628 305.86265,20.407555 305.57857,19.747605 C 305.28301,19.061016 306.53483,17.932328 308.50475,17.109243 C 310.39824,16.318093 314.93773,13.134057 318.59252,10.033607 L 325.23758,4.396426 L 325.23758,49.969719 L 325.23758,95.543011 L 327.8836,97.995261 C 329.33892,99.343998 331.13892,100.44751 331.8836,100.44751 C 334.08762,100.44751 333.44369,102.09629 330.16085,104.85862 L 327.08413,107.44751 L 299.29722,107.44751 L 271.51031,107.44751 L 268.85369,104.79089 C 267.39254,103.32975 265.9324,101.07975 265.60891,99.790888 C 265.28543,98.502031 264.84599,97.447511 264.63237,97.447511 C 264.41875,97.447511 262.07526,99.697508 259.42462,102.44751 L 254.60526,107.44751 L 239.20574,107.44751 L 223.80622,107.44751 L 205.7719,125.35076 C 191.22433,139.79261 186.96422,143.46498 183.73758,144.34519 C 178.85769,145.67638 171.2652,145.75056 169.26654,144.48657 z M 273.23758,70.756384 C 273.23758,68.781803 272.72789,68.447514 269.71726,68.447514 L 266.19693,68.447514 L 268.33748,72.643338 C 270.34518,76.578751 270.56367,76.722049 271.85781,74.952208 C 272.61668,73.914384 273.23758,72.026263 273.23758,70.756384 z M 88.686281,142.36453 C 88.318161,141.76889 85.564391,139.71266 82.566811,137.79513 C 75.743681,133.43042 75.812511,131.62114 83.025031,125.75093 C 88.502921,121.29252 90.234041,120.56015 90.242531,122.69751 C 90.245271,123.38501 91.294901,125.25649 92.575061,126.85635 L 94.902611,129.76519 L 100.73783,125.35956 C 104.25838,122.70152 106.72933,121.42278 106.96703,122.13589 C 107.18372,122.78596 108.68324,125.14312 110.29929,127.37402 C 113.9234,132.37694 113.95475,133.94113 110.53658,139.21273 L 107.83558,143.37828 L 104.78658,141.06111 C 103.10962,139.78666 100.36098,138.03511 98.678491,137.16877 L 95.619411,135.59361 L 93.192421,139.52056 C 90.654891,143.62636 89.799711,144.1661 88.686281,142.36453 z M 136.71408,142.40949 C 136.36124,141.83858 133.6751,140.01843 130.74487,138.36472 C 124.96517,135.10285 123.70794,133.30567 125.22404,130.47281 C 126.67779,127.75645 136.52169,120.79983 136.97735,122.16681 C 137.18837,122.79988 138.68325,125.14312 140.2993,127.37402 C 143.88719,132.32695 143.92984,133.59055 140.69543,139.10965 C 137.96262,143.77283 137.69418,143.99532 136.71408,142.40949 z M 92.932381,119.61686 C 92.002841,117.51 89.718191,114.0225 87.855391,111.86686 L 84.468471,107.94751 L 51.887891,107.65831 L 19.307311,107.36912 L 20.915981,103.9957 C 22.397591,100.88873 22.394831,100.29782 20.881111,96.514661 C 17.427611,87.883501 19.152251,82.755001 28.628561,73.476402 C 32.263521,69.917291 35.237571,66.411864 35.237571,65.686564 C 35.237571,64.961265 34.343891,62.616081 33.251611,60.475045 L 31.265661,56.582252 L 37.501611,51.019378 C 43.716181,45.475579 45.237571,44.571705 45.237571,46.423344 C 45.237571,46.960051 46.077991,48.781133 47.105171,50.470193 L 48.972761,53.541212 L 52.235601,50.795714 C 55.466621,48.07699 55.491141,48.073211 54.750051,50.408189 C 54.338431,51.705074 53.969181,54.919022 53.929491,57.550295 C 53.869131,61.551195 55.066451,64.799405 61.242951,77.390971 L 68.628601,92.447511 L 75.482741,92.447511 C 83.942711,92.447511 86.541801,93.724391 93.131651,101.11804 C 95.939911,104.26883 98.237571,106.36495 98.237571,105.77608 C 98.237571,105.18722 96.212571,100.13819 93.737571,94.556031 C 86.973241,79.299627 87.658141,75.243705 98.476891,66.489849 C 101.90434,63.716565 104.94338,61.447514 105.2303,61.447514 C 105.51723,61.447514 105.59358,63.439119 105.39998,65.873303 C 105.11572,69.447449 105.98026,72.427802 109.89278,81.361491 L 114.73758,92.423891 L 121.53724,92.435701 C 129.93702,92.450291 132.55978,93.744551 139.13167,101.11804 C 141.93992,104.26883 144.23758,106.48274 144.23758,106.03785 C 144.23758,105.59295 142.21258,100.57837 139.73758,94.894341 C 132.93525,79.272259 133.7425,74.790605 144.94245,65.998189 C 148.12977,63.496009 150.96258,61.448209 151.23758,61.447521 C 151.51258,61.446833 151.5865,63.624563 151.40186,66.28692 C 151.11512,70.421244 151.84055,72.792457 156.37346,82.537541 C 160.7969,92.047271 161.68552,94.897111 161.70919,99.649318 C 161.73565,104.96256 161.46498,105.63276 157.73758,109.48348 C 153.22588,114.14445 141.31745,123.88766 140.82703,123.31931 C 140.65058,123.11482 139.73597,121.29473 138.79457,119.27466 C 137.85316,117.2546 135.59928,113.8855 133.78595,111.78778 C 130.5354,108.02746 130.37312,107.96849 122.2599,107.60005 L 114.03081,107.22635 L 109.38419,111.66578 C 103.63656,117.15713 96.090191,123.44751 95.250021,123.44751 C 94.904861,123.44751 93.861931,121.72372 92.932381,119.61686 z M 46.218281,86.409311 C 44.541841,83.088301 42.735361,80.639861 42.203891,80.968331 C 40.845171,81.808061 40.967231,82.582131 43.284361,87.820391 C 44.718261,91.061951 45.920341,92.447511 47.298761,92.447511 C 49.136271,92.447511 49.064831,92.048281 46.218281,86.409311 z M 359.73758,106.72963 C 355.85475,105.78634 351.33462,101.45821 350.2849,97.678461 C 349.68481,95.517701 349.24435,82.163581 349.23832,65.947514 L 349.2279,37.947514 L 344.90529,28.362501 L 340.58269,18.777488 L 345.16013,16.669432 C 347.67773,15.510001 352.32508,12.249763 355.48758,9.4244576 L 361.23758,4.287541 L 361.25954,45.617527 C 361.27998,84.082121 361.41343,87.238101 363.18438,91.138851 C 365.21706,95.616061 369.02079,98.135971 378.72589,101.43484 C 384.27976,103.32265 384.8082,104.34572 381.17834,106.18277 C 378.81261,107.38005 363.9729,107.75855 359.73758,106.72963 z M 34.124251,45.165913 C 32.686931,43.945793 30.099431,42.180944 28.374251,41.244024 C 23.360291,38.521011 24.084101,35.382076 30.972691,29.975462 L 36.707801,25.474164 L 38.404891,28.782131 C 41.498001,34.811215 42.724801,35.143498 47.145581,31.14958 C 52.316811,26.477691 55.237571,24.894121 55.237571,26.762292 C 55.237571,27.524122 56.587571,30.011058 58.237571,32.288817 C 61.789551,37.192189 61.810731,37.403701 59.251861,42.419503 C 56.783941,47.257028 55.573991,48.040753 53.424551,46.194043 C 49.846021,43.119504 42.933791,39.922022 42.514721,41.14733 C 41.917551,42.893339 38.208161,47.452914 37.414991,47.415913 C 37.042411,47.398532 35.561581,46.386032 34.124251,45.165913 z "
     id="path2220" />
</svg>
